<?xml version="1.0"?><svg width="300" height="300" xmlns="http://www.w3.org/2000/svg">
 <g>
  <title>Layer 1</title>
  <g id="Layer_1">
   <g id="svg_1">
    <g id="surface0">
     <path id="svg_2" d="m12.289,80.435997c3.292001,-4.744995 8.785,-7.999001 14.615,-8.167999c14.142002,-1.257996 28.313,9.713005 30.247002,23.839005c0.606998,3.047997 -0.672001,6.022995 -1.101002,9.001999c6,4.008995 12.297001,7.752998 18.744999,11.018997c20.032005,5.181 41.814003,4.143005 61.065002,-3.605995c6.584,-2.764999 12.841003,-7.489006 20.261002,-7.331001c6.695999,0.547997 8.600998,9.881996 4.425003,14.344002c-4.715012,5.240997 -12.055008,6.449997 -18.623001,7.795998c-5.024002,0.797005 -9.997009,1.963997 -15.064003,2.458992c-11.190002,0.224014 -22.514999,0.573013 -33.522003,-1.828995c-0.034996,0.841995 -0.103996,2.526001 -0.139999,3.369003c-3.076996,1.815994 -6.144997,0.039001 -8.726997,-1.75c-7.072998,-4.303001 -14.162003,-8.587006 -21.446003,-12.527c-3.730999,-2.020004 -6.903999,-4.915001 -10.738998,-6.766998c-3.729,3.044998 -8.449001,5.038994 -13.313,4.936996c-11.382,0.249001 -22.322001,-6.977997 -27.075,-17.233002c-2.264,-5.537994 -2.468,-12.196999 0.391999,-17.554001z" stroke-miterlimit="10" stroke-width="0.1" stroke="#000000" fill="none"/>
     <path id="svg_3" d="m12.289,80.435997c3.292001,-4.744995 8.785,-7.999001 14.615,-8.167999c14.142002,-1.257996 28.313,9.713005 30.247002,23.839005c0.606998,3.047997 -0.672001,6.022995 -1.101002,9.001999c6,4.008995 12.297001,7.752998 18.744999,11.018997c20.032005,5.181 41.814003,4.143005 61.065002,-3.605995c6.584,-2.764999 12.841003,-7.489006 20.261002,-7.331001c6.695999,0.547997 8.600998,9.881996 4.425003,14.344002c-4.715012,5.240997 -12.055008,6.449997 -18.623001,7.795998c-5.024002,0.797005 -9.997009,1.963997 -15.064003,2.458992c-11.190002,0.224014 -22.514999,0.573013 -33.522003,-1.828995c-0.034996,0.841995 -0.103996,2.526001 -0.139999,3.369003c-3.076996,1.815994 -6.144997,0.039001 -8.726997,-1.75c-7.072998,-4.303001 -14.162003,-8.587006 -21.446003,-12.527c-3.730999,-2.020004 -6.903999,-4.915001 -10.738998,-6.766998c-3.729,3.044998 -8.449001,5.038994 -13.313,4.936996c-11.382,0.249001 -22.322001,-6.977997 -27.075,-17.233002c-2.264,-5.537994 -2.468,-12.196999 0.391999,-17.554001z"/>
     <path id="svg_4" d="m25.530001,78.660004c11.92,-2.254005 24.574999,7.269997 25.642,19.377998c-0.239002,4.268997 -2.707001,8.702995 -6.938999,10.098999c-9.413002,3.137001 -20.221003,-1.964005 -25.312002,-10.145004c-2.921,-4.271996 -3.414,-10.143997 -0.966999,-14.737c1.869999,-2.376999 4.618999,-3.997993 7.576,-4.594994z" stroke-miterlimit="10" stroke-width="0.1" stroke="#FFFFFF" fill="none"/>
     <path id="svg_5" d="m25.530001,78.660004c11.92,-2.254005 24.574999,7.269997 25.642,19.377998c-0.239002,4.268997 -2.707001,8.702995 -6.938999,10.098999c-9.413002,3.137001 -20.221003,-1.964005 -25.312002,-10.145004c-2.921,-4.271996 -3.414,-10.143997 -0.966999,-14.737c1.869999,-2.376999 4.618999,-3.997993 7.576,-4.594994z" fill="#FFFFFF"/>
     <path id="svg_6" d="m214.136002,101.357002c5.639999,-2.334999 11.977997,-2.573006 17.973999,-1.835999c10.477005,1.969994 20.869995,5.415993 29.645004,11.611c4.959991,3.875 9.789001,8.723999 11.087982,15.125999c3.085999,14.473991 -2.618988,30.159996 -13.904999,39.650002c-2.779999,1.97699 -4.922989,5.878998 -8.689987,5.666992c6.874985,-9.030991 10.262985,-20.397995 10.310989,-31.688004c0.005005,-5.233994 -2.634979,-10.291992 -7.046997,-13.141991c-10.702988,-7.350006 -24.408997,-6.528999 -36.233994,-10.926003c-3.699005,-1.167 -6.257996,-4.328003 -7.442001,-7.917c-0.923996,-2.997002 1.772995,-5.496002 4.300003,-6.544998z" stroke-miterlimit="10" stroke-width="0.1" stroke="#000000" fill="none"/>
     <path id="svg_7" d="m214.136002,101.357002c5.639999,-2.334999 11.977997,-2.573006 17.973999,-1.835999c10.477005,1.969994 20.869995,5.415993 29.645004,11.611c4.959991,3.875 9.789001,8.723999 11.087982,15.125999c3.085999,14.473991 -2.618988,30.159996 -13.904999,39.650002c-2.779999,1.97699 -4.922989,5.878998 -8.689987,5.666992c6.874985,-9.030991 10.262985,-20.397995 10.310989,-31.688004c0.005005,-5.233994 -2.634979,-10.291992 -7.046997,-13.141991c-10.702988,-7.350006 -24.408997,-6.528999 -36.233994,-10.926003c-3.699005,-1.167 -6.257996,-4.328003 -7.442001,-7.917c-0.923996,-2.997002 1.772995,-5.496002 4.300003,-6.544998z"/>
     <path id="svg_8" d="m206.591003,160.852997c3.588989,-7.112991 14.757004,-6.395996 18.925003,-0.272003c3.534988,4.709 3.913986,10.828003 4.511993,16.468002c0.955002,13.415009 0.115005,27.341003 5.024002,40.12001c4.244995,9.895996 13.774002,15.987991 23.126007,20.457001c10.725983,5.432999 22.539001,8.009995 33.721985,12.25c-2.380005,2.904999 -6.612,1.394989 -9.781982,1.064987c-11.380005,-2.557999 -22.757019,-5.127991 -34.13501,-7.681c-10.074005,-2.481995 -20.650009,-6.707001 -26.667999,-15.639999c-8.185989,-15.087997 -13.766998,-31.597 -16.36499,-48.567001c-0.526016,-6.03299 -1.235016,-12.620987 1.640991,-18.199997z" stroke-miterlimit="10" stroke-width="0.1" stroke="#000000" fill="none"/>
     <path id="svg_9" d="m206.591003,160.852997c3.588989,-7.112991 14.757004,-6.395996 18.925003,-0.272003c3.534988,4.709 3.913986,10.828003 4.511993,16.468002c0.955002,13.415009 0.115005,27.341003 5.024002,40.12001c4.244995,9.895996 13.774002,15.987991 23.126007,20.457001c10.725983,5.432999 22.539001,8.009995 33.721985,12.25c-2.380005,2.904999 -6.612,1.394989 -9.781982,1.064987c-11.380005,-2.557999 -22.757019,-5.127991 -34.13501,-7.681c-10.074005,-2.481995 -20.650009,-6.707001 -26.667999,-15.639999c-8.185989,-15.087997 -13.766998,-31.597 -16.36499,-48.567001c-0.526016,-6.03299 -1.235016,-12.620987 1.640991,-18.199997z"/>
     <path id="svg_10" d="m184.044998,158.667999c4.395004,-1.513992 9.656006,-2.250992 13.824005,0.289001c2.720001,1.488998 3.780991,4.619003 4.843002,7.335999c1.643997,4.957001 -1.427002,10.117996 -5.263,13.119003c-5.430008,4.149994 -11.516006,7.319992 -17.455002,10.664993c-33.64801,19.223999 -67.917,37.327011 -101.780006,56.166c-5.820999,3.333008 -12.010994,5.962997 -18.348995,8.139999c-0.462002,-0.376999 -0.923,-0.75 -1.383003,-1.118988c2.119003,-1.070007 4.217003,-2.199005 6.128002,-3.614014c29.265999,-23.434998 58.737,-46.623993 88.070999,-69.978989c9.878998,-7.779007 19.589996,-16.199005 31.363998,-21.003006z" stroke-miterlimit="10" stroke-width="0.1" stroke="#000000" fill="none"/>
     <path id="svg_11" d="m184.044998,158.667999c4.395004,-1.513992 9.656006,-2.250992 13.824005,0.289001c2.720001,1.488998 3.780991,4.619003 4.843002,7.335999c1.643997,4.957001 -1.427002,10.117996 -5.263,13.119003c-5.430008,4.149994 -11.516006,7.319992 -17.455002,10.664993c-33.64801,19.223999 -67.917,37.327011 -101.780006,56.166c-5.820999,3.333008 -12.010994,5.962997 -18.348995,8.139999c-0.462002,-0.376999 -0.923,-0.75 -1.383003,-1.118988c2.119003,-1.070007 4.217003,-2.199005 6.128002,-3.614014c29.265999,-23.434998 58.737,-46.623993 88.070999,-69.978989c9.878998,-7.779007 19.589996,-16.199005 31.363998,-21.003006z"/>
    </g>
   </g>
   <g id="svg_12">
    <path id="svg_13" d="m35.405998,124.313004c4.988003,0 9.031002,4.042999 9.031002,9.030991s-4.042999,9.031006 -9.031002,9.031006s-9.030998,-4.042999 -9.030998,-9.031006s4.042999,-9.030991 9.030998,-9.030991m0,6c-1.670998,0 -3.030998,1.360001 -3.030998,3.030991s1.360001,3.031006 3.030998,3.031006s3.031002,-1.360001 3.031002,-3.031006s-1.359001,-3.030991 -3.031002,-3.030991l0,0z"/>
   </g>
   <circle id="svg_14" r="21.699" cy="74.676" cx="170.449"/>
  </g>
 </g>
</svg>